<svg width="146" height="149" viewBox="0 0 146 149" fill="none" xmlns="http://www.w3.org/2000/svg">
<ellipse cx="73" cy="74.5" rx="73" ry="74.5" fill="#E6E8EB"/>
<g clip-path="url(#clip0_23_56)">
<path fill-rule="evenodd" clip-rule="evenodd" d="M118 111H85V123H89.5C89.8978 123 90.2794 123.158 90.5607 123.439C90.842 123.721 91 124.102 91 124.5C91 124.898 90.842 125.279 90.5607 125.561C90.2794 125.842 89.8978 126 89.5 126H56.5C56.1022 126 55.7206 125.842 55.4393 125.561C55.158 125.279 55 124.898 55 124.5C55 124.102 55.158 123.721 55.4393 123.439C55.7206 123.158 56.1022 123 56.5 123H61V111H28C26.6739 111 25.4021 110.473 24.4645 109.536C23.5268 108.598 23 107.326 23 106V97H123V106C123 107.326 122.473 108.598 121.536 109.536C120.598 110.473 119.326 111 118 111Z" fill="#BDC3C7"/>
<path fill-rule="evenodd" clip-rule="evenodd" d="M61 111H85V113H61V111Z" fill="#95A5A5"/>
<path fill-rule="evenodd" clip-rule="evenodd" d="M28 32H118C119.326 32 120.598 32.5268 121.536 33.4645C122.473 34.4021 123 35.6739 123 37V97H23V37C23 35.6739 23.5268 34.4021 24.4645 33.4645C25.4021 32.5268 26.6739 32 28 32V32Z" fill="#878787"/>
<path fill-rule="evenodd" clip-rule="evenodd" d="M28 37H118V92H28V37Z" fill="white"/>
<path d="M73 106C74.1046 106 75 105.105 75 104C75 102.895 74.1046 102 73 102C71.8954 102 71 102.895 71 104C71 105.105 71.8954 106 73 106Z" fill="#6783E9" fill-opacity="0.32"/>
<path d="M89.8 50.6C90.9139 50.6 91.9822 50.9793 92.7698 51.6544C93.5575 52.3295 94 53.2452 94 54.2V75.8C94 76.7548 93.5575 77.6704 92.7698 78.3456C91.9822 79.0207 90.9139 79.4 89.8 79.4H56.2C55.0861 79.4 54.0178 79.0207 53.2302 78.3456C52.4425 77.6704 52 76.7548 52 75.8V54.2C52 52.22 53.89 50.6 56.2 50.6H89.8ZM80.623 66.98L94 75.8V72.2L83.248 65.18L94 57.8V54.2L73 68.6L52 54.2V57.8L62.752 65.18L52 72.2V75.8L65.377 66.98L73 72.2L80.623 66.98Z" fill="#DADADA"/>
<circle cx="95" cy="53" r="7" fill="white"/>
<ellipse cx="94.5" cy="53" rx="4.5" ry="5" fill="#556FCB"/>
</g>
<defs>
<clipPath id="clip0_23_56">
<rect width="100" height="100" fill="white" transform="translate(23 32)"/>
</clipPath>
</defs>
</svg>
