<svg width="314" height="241" viewBox="0 0 314 241" fill="none" xmlns="http://www.w3.org/2000/svg">
<path d="M258.5 41.25C260.754 41.25 262.916 41.9743 264.51 43.2636C266.104 44.553 267 46.3016 267 48.125V151.25H63V48.125C63 46.3016 63.8955 44.553 65.4896 43.2636C67.0837 41.9743 69.2457 41.25 71.5 41.25H258.5ZM71.5 27.5C64.737 27.5 58.251 29.673 53.4688 33.5409C48.6866 37.4089 46 42.6549 46 48.125V165H284V48.125C284 42.6549 281.313 37.4089 276.531 33.5409C271.749 29.673 265.263 27.5 258.5 27.5H71.5ZM29 171.875H301C301 177.345 298.313 182.591 293.531 186.459C288.749 190.327 282.263 192.5 275.5 192.5H54.5C47.737 192.5 41.251 190.327 36.4688 186.459C31.6866 182.591 29 177.345 29 171.875H29Z" fill="#EAEAEA"/>
<path d="M61 47C61 43.6863 63.6863 41 67 41H265C268.314 41 271 43.6863 271 47V146C271 149.314 268.314 152 265 152H67C63.6863 152 61 149.314 61 146V47Z" fill="#C4C4C4"/>
<rect x="185" y="60" width="65" height="73" fill="#DADADA"/>
<rect x="78" y="76" width="90" height="64" fill="#DADADA"/>
<rect x="78" y="52" width="90" height="17" fill="#DADADA"/>
<g clip-path="url(#clip0_1_395)">
<path d="M94.5039 103.424C96.6816 103.405 98.7784 104.346 100.333 106.04C101.888 107.734 102.773 110.042 102.794 112.457L103.738 221.704C103.759 224.119 102.914 226.442 101.388 228.162C99.8634 229.883 97.7832 230.86 95.6055 230.879L46.3401 231.305C44.1624 231.324 42.0657 230.383 40.5111 228.689C38.9565 226.995 38.0714 224.686 38.0505 222.272L37.1063 113.024C37.0854 110.61 37.9305 108.287 39.4555 106.566C40.9806 104.845 43.0608 103.868 45.2385 103.849L94.5039 103.424ZM45.1598 94.7454C40.8045 94.783 36.6441 96.7374 33.5939 100.179C30.5438 103.62 28.8536 108.266 28.8954 113.095L29.8396 222.343C29.8813 227.172 31.6515 231.788 34.7607 235.176C37.8699 238.564 42.0635 240.447 46.4188 240.409L95.6842 239.983C100.04 239.945 104.2 237.991 107.25 234.55C110.3 231.108 111.99 226.462 111.949 221.633L111.004 112.386C110.963 107.557 109.193 102.94 106.083 99.5522C102.974 96.1641 98.7806 94.2819 94.4252 94.3196L45.1598 94.7454Z" fill="#EAEAEA"/>
<path d="M70.8939 221.988C73.0715 221.969 75.1517 220.992 76.6768 219.271C78.2019 217.551 79.0469 215.228 79.0261 212.813C79.0052 210.399 78.1201 208.091 76.5655 206.397C75.0109 204.702 72.9142 203.761 70.7365 203.78C68.5588 203.799 66.4786 204.776 64.9535 206.497C63.4285 208.218 62.5834 210.541 62.6043 212.955C62.6251 215.37 63.5102 217.678 65.0648 219.372C66.6194 221.066 68.7162 222.007 70.8939 221.988Z" fill="#EAEAEA"/>
<path d="M36.8463 108.989C36.8485 105.676 39.5365 102.991 42.8502 102.993L97.0546 103.029C100.368 103.031 103.053 105.719 103.051 109.033L102.975 225.421C102.973 228.735 100.285 231.419 96.9709 231.417L42.7665 231.382C39.4528 231.38 36.7683 228.692 36.7704 225.378L36.8463 108.989Z" fill="#C4C4C4"/>
<rect x="45.9999" y="123" width="33" height="9" fill="#556FCB"/>
<rect x="46" y="194" width="47" height="13" fill="#556FCB"/>
<rect x="55.2745" y="147.371" width="38" height="1" rx="0.5" fill="#DADADA"/>
<rect x="55.2747" y="157.371" width="38" height="1" rx="0.5" fill="#DADADA"/>
<rect x="55.2747" y="167.371" width="38" height="1" rx="0.5" fill="#DADADA"/>
<rect x="55.2747" y="177.371" width="38" height="1" rx="0.5" fill="#DADADA"/>
<rect x="46.2747" y="176.406" width="3" height="3" rx="1.5" transform="rotate(-0.200746 46.2747 176.406)" fill="#6783E9" fill-opacity="0.32"/>
<rect x="46.2747" y="166.406" width="3" height="3" rx="1.5" transform="rotate(-0.200746 46.2747 166.406)" fill="#6783E9" fill-opacity="0.32"/>
<rect x="46.2745" y="156.406" width="3" height="3" rx="1.5" transform="rotate(-0.200746 46.2745 156.406)" fill="#6783E9" fill-opacity="0.32"/>
<rect x="46.2747" y="146.406" width="3" height="3" rx="1.5" transform="rotate(-0.200746 46.2747 146.406)" fill="#6783E9" fill-opacity="0.32"/>
</g>
<path d="M250 33.2H298C302.404 33.2 306 36.62 306 40.8V67.4C306 71.58 302.404 75 298 75H282L266 86.4V75H250C245.6 75 242 71.58 242 67.4V40.8C242 36.62 245.6 33.2 250 33.2ZM290 58.28C291.167 58.28 292.286 57.8396 293.111 57.0557C293.936 56.2718 294.4 55.2086 294.4 54.1C294.4 52.9914 293.936 51.9282 293.111 51.1443C292.286 50.3604 291.167 49.92 290 49.92C288.833 49.92 287.714 50.3604 286.889 51.1443C286.064 51.9282 285.6 52.9914 285.6 54.1C285.6 55.2086 286.064 56.2718 286.889 57.0557C287.714 57.8396 288.833 58.28 290 58.28ZM274 58.28C275.167 58.28 276.286 57.8396 277.111 57.0557C277.936 56.2718 278.4 55.2086 278.4 54.1C278.4 52.9914 277.936 51.9282 277.111 51.1443C276.286 50.3604 275.167 49.92 274 49.92C272.833 49.92 271.714 50.3604 270.889 51.1443C270.064 51.9282 269.6 52.9914 269.6 54.1C269.6 55.2086 270.064 56.2718 270.889 57.0557C271.714 57.8396 272.833 58.28 274 58.28ZM258 58.28C259.167 58.28 260.286 57.8396 261.111 57.0557C261.936 56.2718 262.4 55.2086 262.4 54.1C262.4 52.9914 261.936 51.9282 261.111 51.1443C260.286 50.3604 259.167 49.92 258 49.92C256.833 49.92 255.714 50.3604 254.889 51.1443C254.064 51.9282 253.6 52.9914 253.6 54.1C253.6 55.2086 254.064 56.2718 254.889 57.0557C255.714 57.8396 256.833 58.28 258 58.28Z" fill="#556FCB"/>
<defs>
<clipPath id="clip0_1_395">
<rect width="145.669" height="131.379" fill="white" transform="translate(131.375 94) rotate(89.5048)"/>
</clipPath>
</defs>
</svg>
