<svg width="361" height="336" viewBox="0 0 361 336" fill="none" xmlns="http://www.w3.org/2000/svg">
<path fill-rule="evenodd" clip-rule="evenodd" d="M308.398 157.687C324.887 194.972 314.831 229.588 295.193 257.269C276.375 283.793 247.267 306.494 206.295 301.604C168.183 297.056 140.363 262.066 110.051 235.171C79.3749 207.954 38.2863 182.69 34.6698 149.33C30.8279 113.893 61.7759 92.445 92.884 76.8129C126.177 60.082 165.152 45.474 208.768 61.8418C254.415 78.9713 290.7 117.668 308.398 157.687Z" fill="#6783E9" fill-opacity="0.32"/>
<path d="M236.623 178.869L224.108 283.401H221.623L234.139 178.869H236.623Z" fill="#D2DCFF"/>
<path d="M182.85 218.517L175.274 283.401H172.789L180.365 218.517H182.85Z" fill="#D2DCFF"/>
<path d="M149.37 218.517L148.517 225.814L141.794 283.401H139.309L146.066 225.529L146.885 218.517H149.37Z" fill="#D2DCFF"/>
<path d="M182.85 283.401H180.365L179.317 274.427L178.075 263.787L173.988 228.789L172.789 218.517H175.274L176.507 229.083L179.317 253.145L180.559 263.785L182.85 283.401Z" fill="#D2DCFF"/>
<path d="M216.33 283.401H213.845L207.965 233.04H207.964L206.269 218.517H208.754L210.483 233.32L216.33 283.401Z" fill="#D2DCFF"/>
<path d="M149.49 175.144H147.006V214.392H149.49V175.144Z" fill="#D2DCFF"/>
<path d="M183.256 175.144H180.771V214.392H183.256V175.144Z" fill="#D2DCFF"/>
<path d="M209.797 214.392H175.657C176.759 214.392 177.653 215.315 177.653 216.454C177.653 217.593 176.759 218.517 175.657 218.517H209.797C210.899 218.517 211.793 217.593 211.793 216.454C211.793 215.315 210.9 214.392 209.797 214.392Z" fill="#D2DCFF"/>
<path d="M177.654 216.454C177.654 215.315 176.759 214.392 175.657 214.392H149.544H146.18C145.077 214.392 144.183 215.315 144.183 216.454C144.183 217.593 145.078 218.517 146.18 218.517H149.544H175.657C176.76 218.517 177.654 217.594 177.654 216.454Z" fill="#86A2E2"/>
<path d="M184.294 175.144H145.968C143.884 175.144 142.193 173.398 142.193 171.245V149.507C142.193 147.354 143.884 145.608 145.968 145.608H184.294C186.378 145.608 188.069 147.354 188.069 149.507V171.245C188.069 173.398 186.378 175.144 184.294 175.144Z" fill="#D2DCFF"/>
<path d="M149.37 218.517L148.518 225.814C147.621 225.709 146.8 225.614 146.066 225.529L146.885 218.517H149.37Z" fill="#AEC3FF"/>
<path d="M175.274 218.516L176.508 229.082C175.664 228.984 174.824 228.886 173.989 228.789L172.79 218.516H175.274V218.516Z" fill="#AEC3FF"/>
<path d="M210.483 233.32C209.681 233.231 208.84 233.137 207.965 233.04H207.965L206.269 218.517H208.755L210.483 233.32Z" fill="#AEC3FF"/>
<path d="M147.006 175.144H149.491V180.564L147.006 180.281V175.144Z" fill="#AEC3FF"/>
<path d="M183.255 175.144V184.425L180.771 184.142V175.144H183.255Z" fill="#AEC3FF"/>
<path d="M188.115 106.268C185.196 111.257 176.272 118.436 163.003 114.054V114.055C162.962 114.049 162.92 114.045 162.877 114.045C159.72 114.045 159.5 123.113 164.812 123.637C164.89 123.904 164.971 124.157 165.053 124.393V139.141H177.035V133.408C177.87 133.652 178.67 133.791 179.404 133.791C184.36 133.791 192.975 125.894 193.171 113.452C191.845 113.143 188.115 109.748 188.115 106.268Z" fill="#FCBEB7"/>
<path d="M195.688 109.833C195.688 101.639 188.692 94.9999 178.201 94.9999C169.482 94.9999 166.485 99.9701 166.485 99.9701C166.485 99.9701 158.244 101.81 158.244 112.389C158.244 122.222 158.244 139.141 158.244 139.141H171.786H172.476H182.477H193.348V117.11C194.208 116.02 195.688 113.597 195.688 109.833ZM179.404 133.791C178.671 133.791 177.871 133.652 177.036 133.408V139.141H165.054V124.393C164.972 124.157 164.891 123.904 164.813 123.637C159.501 123.113 159.721 114.045 162.878 114.045C162.92 114.045 162.962 114.049 163.004 114.055V114.054C176.273 118.436 185.196 111.256 188.116 106.268C188.116 109.749 191.846 113.143 193.172 113.453C192.975 125.894 184.36 133.791 179.404 133.791Z" fill="#311643"/>
<path d="M155.669 138.054L165.054 133.562L170.203 133.703L177.036 134.035L186.853 137.115V150.056H155.669V138.054Z" fill="#FCBEB7"/>
<path d="M186.853 150.848V137.115L177.035 134.035V133.408C174.258 132.599 171.102 130.639 168.785 128.81L186.853 150.848Z" fill="#F9AFAB"/>
<path d="M170.636 123.956C172.441 123.956 173.905 122.444 173.905 120.579C173.905 118.714 172.441 117.203 170.636 117.203C168.83 117.203 167.367 118.714 167.367 120.579C167.367 122.444 168.83 123.956 170.636 123.956Z" fill="#F49795"/>
<path d="M192.751 117.776C192.336 120.044 191.642 122.112 190.764 123.952C189.036 123.863 187.661 122.387 187.661 120.579C187.661 118.714 189.125 117.203 190.93 117.203C191.603 117.203 192.23 117.414 192.751 117.776Z" fill="#F49795"/>
<path d="M187.222 110.31C184.835 110.31 182.864 112.185 182.616 114.583C181.319 113.953 180.174 114.294 179.569 114.581C179.319 112.184 177.35 110.31 174.964 110.31C172.41 110.31 170.332 112.457 170.332 115.095C170.332 117.734 172.41 119.88 174.964 119.88C177.461 119.88 179.502 117.828 179.592 115.271C179.976 115.042 181.198 114.459 182.594 115.276C182.686 117.831 184.727 119.88 187.222 119.88C189.776 119.88 191.854 117.734 191.854 115.095C191.854 112.457 189.776 110.31 187.222 110.31ZM174.964 119.254C172.745 119.254 170.938 117.388 170.938 115.095C170.938 112.802 172.745 110.936 174.964 110.936C177.185 110.936 178.991 112.802 178.991 115.095C178.991 117.389 177.185 119.254 174.964 119.254ZM187.222 119.254C185.002 119.254 183.195 117.388 183.195 115.095C183.195 112.802 185.001 110.936 187.222 110.936C189.442 110.936 191.248 112.802 191.248 115.095C191.248 117.389 189.442 119.254 187.222 119.254Z" fill="white"/>
<path d="M187.225 118.155C186.861 118.155 186.565 117.849 186.565 117.473V116.197C186.565 115.82 186.861 115.514 187.225 115.514C187.59 115.514 187.886 115.82 187.886 116.197V117.473C187.886 117.849 187.59 118.155 187.225 118.155Z" fill="#311643"/>
<path d="M175.166 118.155C174.8 118.155 174.505 117.849 174.505 117.473V116.197C174.505 115.82 174.801 115.515 175.166 115.515C175.531 115.515 175.827 115.82 175.827 116.197V117.473C175.827 117.849 175.531 118.155 175.166 118.155Z" fill="#311643"/>
<path d="M179.885 126.265C178.705 126.265 177.902 125.807 177.415 125.389C176.801 124.863 176.547 124.289 176.536 124.264C176.467 124.106 176.535 123.921 176.688 123.85C176.84 123.779 177.019 123.849 177.088 124.006C177.123 124.083 177.961 125.898 180.395 125.607C180.562 125.588 180.712 125.71 180.731 125.882C180.75 126.054 180.632 126.209 180.465 126.229C180.262 126.254 180.069 126.265 179.885 126.265Z" fill="#311643"/>
<path d="M207.007 278.523L196.015 273.642L196.579 276.456L183.058 272.07V276.072C183.058 277.479 183.77 278.755 184.891 279.472L186.054 282.906C186.154 283.203 186.425 283.402 186.73 283.402C187.126 283.402 187.446 283.071 187.446 282.662V280.427L196.687 283.401H206.035C207.395 283.401 208.496 282.263 208.496 280.859C208.496 279.842 207.911 278.924 207.007 278.523Z" fill="#2F3D6C"/>
<path d="M230.976 278.523L219.984 273.642L220.548 276.456L207.027 272.07V276.072C207.027 277.479 207.74 278.755 208.86 279.472L210.023 282.906C210.123 283.203 210.394 283.402 210.699 283.402C211.095 283.402 211.415 283.071 211.415 282.662V280.427L220.656 283.401H230.004C231.364 283.401 232.466 282.263 232.466 280.859C232.465 279.842 231.879 278.924 230.976 278.523Z" fill="#2F3D6C"/>
<path d="M183.058 266.746L183.064 272.069L196.579 276.456L196.015 273.642L194.893 273.05L195.874 266.746H183.058Z" fill="#FCBEB7"/>
<path d="M207.027 266.746L207.033 272.069L220.548 276.456L219.984 273.642L218.861 273.051L219.843 266.746H207.027Z" fill="#FCBEB7"/>
<path d="M173.364 191.257V191.757C173.354 204.326 183.215 214.52 195.383 214.52H205.612L207.028 266.746H219.844L229.294 204.476C230.348 197.533 225.151 191.257 218.347 191.257H173.364V191.257Z" fill="#6277D7"/>
<path d="M204.732 208.382L205.611 214.521H203.745L204.732 208.382Z" fill="#4A5EA3"/>
<path d="M153.256 200.744C153.898 208.535 160.207 214.521 167.776 214.521H181.643L183.059 266.746H195.875L205.225 205.135C206.331 197.845 200.876 191.258 193.734 191.258H192.708L189.766 182.174H156.005L153.439 196.78C153.208 198.086 153.147 199.42 153.256 200.744Z" fill="#6277D7"/>
<path d="M172.962 144.217C175.238 144.217 177.058 141.953 178.286 139.66H165.307C167.287 141.947 169.998 144.217 172.962 144.217Z" fill="white"/>
<path d="M197.353 144.565L196.455 143.121C195.289 141.247 193.649 139.755 191.727 138.796C191.192 138.53 190.636 138.305 190.061 138.124L180.061 134.978C180.061 135.352 179.432 137.518 178.286 139.659C177.059 141.952 175.239 144.216 172.963 144.216C169.999 144.216 167.288 141.946 165.308 139.659C163.3 137.339 162.045 135.001 162.045 135.001L153.11 139.278C149.453 141.028 146.76 144.396 145.787 148.437L141.804 161.585C141.123 163.835 140.776 166.179 140.776 168.537V169.626C140.776 172.452 142.994 174.743 145.73 174.743H155.256L156.005 182.174H189.765L198.275 146.047L197.353 144.565Z" fill="#FF9078"/>
<path d="M173.296 147.478C171.418 147.478 169.509 146.888 167.619 145.725C166.118 144.801 164.627 143.516 163.185 141.904C160.739 139.168 159.248 136.376 159.234 136.348L159.736 136.108C159.75 136.135 161.195 138.842 163.598 141.527C165.003 143.097 166.452 144.346 167.906 145.24C169.708 146.348 171.521 146.909 173.296 146.909C174.97 146.909 176.479 146.332 177.779 145.194C178.831 144.273 179.754 142.983 180.521 141.36C181.84 138.572 182.243 135.695 182.247 135.667L182.795 135.839C182.779 135.958 182.376 138.73 181.022 141.598C180.222 143.295 179.252 144.649 178.141 145.623C176.737 146.854 175.107 147.478 173.296 147.478Z" fill="white"/>
<path d="M229.303 204.408C228.183 205.653 226.584 206.433 224.808 206.433C221.42 206.433 218.673 203.595 218.673 200.095C218.673 196.595 221.42 193.758 224.808 193.758C224.968 193.758 225.126 193.764 225.283 193.776C228.231 196.228 229.919 200.19 229.303 204.408Z" fill="#4A5EA3"/>
<path d="M205.366 203.106C204.329 205.087 202.3 206.432 199.968 206.432C196.579 206.432 193.833 203.594 193.833 200.094C193.833 196.594 196.58 193.757 199.968 193.757C200.298 193.757 200.621 193.785 200.937 193.836C203.616 196.026 205.324 199.395 205.366 203.106Z" fill="#4A5EA3"/>
<path d="M145.231 174.744H182.274V169.914L145.739 165.571C143.095 165.257 140.776 167.393 140.776 170.143C140.776 172.683 142.77 174.744 145.231 174.744Z" fill="#FCBEB7"/>
<path d="M228.616 146.047H190.766C189.249 146.047 187.914 147.085 187.496 148.592L180.952 172.14H166.501C165.818 172.14 165.235 172.689 165.212 173.394C165.186 174.135 165.76 174.743 166.471 174.743H184.603H223.021L230.34 148.41C230.668 147.226 229.807 146.047 228.616 146.047Z" fill="#4A5EA3"/>
<path d="M208.219 161.407C208.312 160.307 207.797 159.362 207.068 159.296C206.339 159.229 205.672 160.067 205.578 161.167C205.484 162.266 206 163.211 206.729 163.277C207.458 163.344 208.125 162.506 208.219 161.407Z" fill="#2F3D6C"/>
<path d="M156.004 182.174L154.654 189.859L190.541 184.569L189.765 182.174H156.004Z" fill="#4A5EA3"/>
<path d="M154.062 141.473C154.062 143.792 152.242 145.672 149.997 145.672C148.971 145.672 148.034 145.279 147.319 144.631C148.675 142.318 150.679 140.442 153.108 139.279L153.381 139.148C153.811 139.813 154.062 140.614 154.062 141.473Z" fill="#FFA978"/>
<path d="M197.353 144.565C196.723 144.98 195.975 145.22 195.173 145.22C192.929 145.22 191.109 143.34 191.109 141.022C191.109 140.205 191.335 139.441 191.727 138.796C193.649 139.754 195.289 141.246 196.455 143.122L197.353 144.565Z" fill="#FF9078"/>
<path d="M184.355 159.889C184.198 160.455 177.324 168.102 177.324 168.102L159.006 167.147L181.592 169.832L184.355 159.889Z" fill="#FFA978"/>
<path d="M112 178.869L108.653 206.836L99.4847 283.401H97L106.141 207.054L109.516 178.869H112Z" fill="#D2DCFF"/>
<path d="M144.888 283.401H142.403L132.981 204.716L129.887 178.869H132.371L135.441 204.502L144.888 283.401Z" fill="#D2DCFF"/>
<path d="M109.516 178.869H112L108.653 206.836L106.141 207.054L109.516 178.869Z" fill="#AEC3FF"/>
<path d="M132.371 178.869L135.441 204.502L132.981 204.716L129.887 178.869H132.371Z" fill="#AEC3FF"/>
<path d="M269.511 283.401H267.025L256.318 193.972L254.51 178.869H256.995L258.777 193.758L269.511 283.401Z" fill="#D2DCFF"/>
<path d="M258.777 193.758L256.318 193.972L254.51 178.869H256.995L258.777 193.758Z" fill="#AEC3FF"/>
<path d="M263.58 174.744H136.844V178.869H263.58C264.683 178.869 265.576 177.945 265.576 176.806C265.576 175.666 264.682 174.744 263.58 174.744Z" fill="#D2DCFF"/>
<path d="M111.047 174.744H103.558C102.456 174.744 101.562 175.667 101.562 176.806C101.562 177.945 102.456 178.869 103.558 178.869H111.047H136.845V174.744H111.047Z" fill="#86A2E2"/>
<path d="M260.73 170.133V169.081C260.73 168.756 260.474 168.492 260.16 168.492H236.539C235.347 168.492 234.382 169.49 234.382 170.721V172.514C234.382 173.745 235.347 174.743 236.539 174.743H260.16C260.474 174.743 260.73 174.479 260.73 174.154V173.102C260.73 172.777 260.474 172.513 260.16 172.513H237.407C236.928 172.513 236.539 172.112 236.539 171.617C236.539 171.122 236.928 170.721 237.407 170.721H260.16C260.474 170.721 260.73 170.458 260.73 170.133Z" fill="#6277D7"/>
<path d="M259.709 170.721V172.514H237.407C236.928 172.514 236.539 172.113 236.539 171.618C236.539 171.123 236.928 170.722 237.407 170.722H259.709V170.721Z" fill="#D2DCFF"/>
<path d="M259.042 163.881V162.829C259.042 162.504 258.786 162.24 258.472 162.24H238.226C237.035 162.24 236.069 163.238 236.069 164.469V166.262C236.069 167.494 237.035 168.491 238.226 168.491H258.472C258.786 168.491 259.042 168.227 259.042 167.902V166.851C259.042 166.526 258.786 166.262 258.472 166.262H239.094C238.615 166.262 238.226 165.861 238.226 165.366C238.226 164.871 238.615 164.47 239.094 164.47H258.472C258.787 164.47 259.042 164.206 259.042 163.881Z" fill="#FFA978"/>
<path d="M258.292 164.47V166.263H239.095C238.616 166.263 238.227 165.862 238.227 165.367C238.227 164.872 238.616 164.471 239.095 164.471H258.292V164.47Z" fill="#FFD9E8"/>
<path d="M122.173 164.713H133.319C133.87 164.713 134.295 165.208 134.23 165.773L133.287 173.909C133.231 174.385 132.841 174.744 132.376 174.744H123.115C122.651 174.744 122.26 174.385 122.205 173.909L121.262 165.773C121.197 165.208 121.623 164.713 122.173 164.713Z" fill="#D2DCFF"/>
<path d="M131.572 161.392V157.692L129.43 161.898V155.067L127.746 159.368L126.062 155.067V161.898L123.92 157.692V161.392L120.798 156.206L122.173 164.712H127.746H133.319L134.695 156.206L131.572 161.392Z" fill="#6277D7"/>
<path d="M145.291 173.197C146.924 173.197 148.248 171.829 148.248 170.142C148.248 168.455 146.924 167.087 145.291 167.087C143.658 167.087 142.334 168.455 142.334 170.142C142.334 171.829 143.658 173.197 145.291 173.197Z" fill="#F9AFAB"/>
</svg>
