<svg width="274" height="227" viewBox="0 0 274 227" fill="none" xmlns="http://www.w3.org/2000/svg">
<path d="M230.627 162.443L238.174 227H240.649L233.102 162.443H230.627Z" fill="#D2DCFF"/>
<path d="M263.978 162.443L264.827 169.703L271.524 226.999H274L267.269 169.419L266.453 162.443H263.978Z" fill="#D2DCFF"/>
<path d="M230.627 226.999H233.102L234.146 218.071L235.384 207.485L239.454 172.663L240.649 162.443H238.174L236.945 172.955L234.146 196.897L232.909 207.483L230.627 226.999Z" fill="#D2DCFF"/>
<path d="M197.276 226.999H199.752L205.609 176.892H205.61L207.298 162.443H204.823L203.101 177.171L197.276 226.999Z" fill="#D2DCFF"/>
<path d="M266.333 119.288H263.857V158.338H266.333V119.288Z" fill="#D2DCFF"/>
<path d="M232.698 119.288H230.223V158.338H232.698V119.288Z" fill="#D2DCFF"/>
<path d="M203.784 158.338H237.792C236.693 158.338 235.803 159.257 235.803 160.39C235.803 161.523 236.693 162.443 237.792 162.443H203.784C202.685 162.443 201.795 161.523 201.795 160.39C201.795 159.257 202.685 158.338 203.784 158.338Z" fill="#D2DCFF"/>
<path d="M235.803 160.39C235.803 159.257 236.693 158.338 237.792 158.338H263.805H267.156C268.254 158.338 269.145 159.257 269.145 160.39C269.145 161.523 268.254 162.443 267.156 162.443H263.805H237.792C236.693 162.443 235.803 161.523 235.803 160.39Z" fill="#86A2E2"/>
<path d="M228.201 89.9002H268.355C269.886 89.9002 271.127 91.1812 271.127 92.7601V116.427C271.127 118.007 269.886 119.288 268.355 119.288H228.201C226.67 119.288 225.428 118.007 225.428 116.427V92.7601C225.428 91.1805 226.669 89.9002 228.201 89.9002Z" fill="#D2DCFF"/>
<path d="M263.978 162.443L264.827 169.703C265.721 169.599 266.538 169.504 267.268 169.42L266.452 162.443H263.978Z" fill="#AEC3FF"/>
<path d="M238.174 162.443L236.945 172.956C237.785 172.859 238.622 172.76 239.454 172.664L240.649 162.443H238.174Z" fill="#AEC3FF"/>
<path d="M203.101 177.171C203.9 177.083 204.737 176.99 205.609 176.892H205.61L207.298 162.443H204.823L203.101 177.171Z" fill="#AEC3FF"/>
<path d="M266.333 119.288H263.857V124.682L266.333 124.399V119.288Z" fill="#AEC3FF"/>
<path d="M230.223 119.288V128.523L232.698 128.24V119.288H230.223Z" fill="#AEC3FF"/>
<path d="M216.82 58.2008C217.739 69.7031 225.838 76.9143 230.59 76.9143C231.303 76.9143 232.08 76.7827 232.89 76.5531V82.2901H244.945V67.7038C245.057 67.402 245.165 67.0676 245.271 66.711C250.615 66.1842 250.394 57.0713 247.218 57.0713C246.641 57.0713 246.254 57.6344 246.011 58.2015L245.223 59.015V54.8978C245.223 54.8978 243.45 55.0698 239.957 49.5797C238.451 51.9378 226.433 55.6414 216.79 53.9827C216.789 53.9827 216.765 56.0305 216.82 58.2008Z" fill="#FCBEB7"/>
<path d="M231.422 38.3709C239.735 38.3709 241.398 42.9457 241.398 42.9457C244.946 42.9457 250.377 49.6368 247.107 57.0706L247.09 57.0881L245.222 59.015V54.8979C245.222 54.8979 243.449 55.0698 239.956 49.5798C238.45 51.9379 226.432 55.6415 216.789 53.9828C216.789 53.9828 216.764 56.0305 216.819 58.2009C216.819 58.2031 216.819 58.2054 216.819 58.2077C213.217 47.4565 220.448 38.3709 231.422 38.3709Z" fill="#311643"/>
<path d="M234.997 61.3412C235.364 61.3412 235.662 61.034 235.662 60.6547V59.373C235.662 58.9937 235.364 58.6867 234.997 58.6867C234.629 58.6867 234.331 58.9937 234.331 59.373V60.6547C234.331 61.034 234.629 61.3412 234.997 61.3412Z" fill="#311643"/>
<path d="M222.665 61.3412C223.032 61.3412 223.33 61.034 223.33 60.6547V59.373C223.33 58.9937 223.032 58.6867 222.665 58.6867C222.297 58.6867 222 58.9937 222 59.373V60.6547C222 61.034 222.297 61.3412 222.665 61.3412Z" fill="#311643"/>
<path d="M230.106 69.3512C231.293 69.3512 232.101 68.8906 232.591 68.4709C233.209 67.9419 233.465 67.3648 233.476 67.3405C233.545 67.1824 233.477 66.9962 233.324 66.9248C233.17 66.8533 232.991 66.9241 232.921 67.0814C232.886 67.159 232.043 68.9833 229.593 68.6907C229.426 68.6717 229.275 68.7941 229.255 68.9674C229.235 69.1407 229.355 69.2958 229.523 69.3156C229.727 69.3399 229.921 69.3512 230.106 69.3512Z" fill="#311643"/>
<path d="M239.412 67.0311C241.229 67.0311 242.701 65.5119 242.701 63.6377C242.701 61.7636 241.229 60.2442 239.412 60.2442C237.596 60.2442 236.123 61.7636 236.123 63.6377C236.123 65.5119 237.596 67.0311 239.412 67.0311Z" fill="#F49795"/>
<path d="M217.162 60.8205C217.579 63.0995 218.277 65.1771 219.161 67.0266C220.9 66.9377 222.283 65.4545 222.283 63.6377C222.283 61.7639 220.811 60.2449 218.995 60.2449C218.317 60.2442 217.686 60.4571 217.162 60.8205Z" fill="#F49795"/>
<path d="M218.004 58.1264C218.004 60.7779 220.095 62.9345 222.664 62.9345C225.175 62.9345 227.227 60.8752 227.32 58.3081C228.714 57.4939 229.954 58.0784 230.34 58.3042C230.431 60.8736 232.484 62.9345 234.995 62.9345C237.565 62.9345 239.655 60.7779 239.655 58.1264C239.655 55.4749 237.564 53.3183 234.995 53.3183C232.595 53.3183 230.613 55.2005 230.362 57.6095C229.755 57.3214 228.602 56.9777 227.297 57.6117C227.047 55.2012 225.064 53.3183 222.663 53.3183C220.095 53.3183 218.004 55.4749 218.004 58.1264ZM230.946 58.1264C230.946 55.8215 232.763 53.9469 234.997 53.9469C237.231 53.9469 239.047 55.8215 239.047 58.1264C239.047 60.4305 237.231 62.3059 234.997 62.3059C232.763 62.3059 230.946 60.4312 230.946 58.1264ZM218.614 58.1264C218.614 55.8215 220.431 53.9469 222.665 53.9469C224.899 53.9469 226.716 55.8215 226.716 58.1264C226.716 60.4305 224.899 62.3059 222.665 62.3059C220.431 62.3059 218.614 60.4312 218.614 58.1264Z" fill="white"/>
<path d="M232.89 82.2901V76.5531C235.616 75.78 238.72 73.8864 241.052 72.081L232.89 82.2901Z" fill="#F9AFAB"/>
<path d="M198.64 180.361L201.157 180.005L203.54 159.616H201.064L198.64 180.361Z" fill="#EBEDF4"/>
<path d="M205.324 102.443L203.139 106.767H214.79L205.324 102.443Z" fill="#FCBEB7"/>
<path d="M227.641 215.725V225.034C227.641 226.12 226.788 226.999 225.736 226.999H200.145C199.902 226.999 199.704 226.796 199.704 226.545V224.829C199.704 224.001 200.172 223.249 200.902 222.904L215.699 215.724H227.641V215.725Z" fill="#2F3D6C"/>
<path d="M227.641 210.429L227.635 215.725H215.699L214.874 210.429H227.641Z" fill="#FCBEB7"/>
<path d="M232.912 76.8792L216.708 84.4309C214.48 85.4693 212.667 87.2685 211.575 89.5255L205.325 102.442L214.79 106.766L214.006 135.319H261.174L259.114 108.652L267.645 108.709V94.1192C267.645 89.6 265.013 85.524 260.971 83.7824L244.946 76.8784C244.945 76.8792 237.944 81.6197 232.912 76.8792Z" fill="#63985E"/>
<path d="M229.033 78.6162C231.591 80.8276 234.789 82.0318 238.165 82.0318C241.72 82.0318 245.225 80.5677 247.845 78.129L247.329 77.9071C244.821 80.177 241.532 81.5285 238.165 81.5285C234.986 81.5285 231.972 80.424 229.535 78.3913L229.033 78.6162Z" fill="white"/>
<path d="M202.528 215.725V225.034C202.528 226.12 201.675 226.999 200.623 226.999H175.032C174.788 226.999 174.591 226.796 174.591 226.545V224.829C174.591 224.001 175.059 223.249 175.789 222.904L190.586 215.724H202.528V215.725Z" fill="#2F3D6C"/>
<path d="M202.528 210.429L202.521 215.725H190.586L189.76 210.429H202.528Z" fill="#FCBEB7"/>
<path d="M236.061 135.319V135.817C236.071 148.322 226.248 158.465 214.127 158.465H203.937L202.528 210.427H189.76L180.347 148.471C179.297 141.562 184.474 135.319 191.252 135.319H236.061V135.319Z" fill="#6277D7"/>
<path d="M180.212 146.735C181.311 148.395 183.161 149.484 185.257 149.484C188.632 149.484 191.368 146.661 191.368 143.179C191.368 139.835 188.845 137.099 185.656 136.888C182.363 138.891 180.194 142.6 180.212 146.735Z" fill="#4A5EA3"/>
<path d="M205.327 146.493L203.937 158.466H212.298L205.327 146.493Z" fill="#4A5EA3"/>
<path d="M261.174 135.319V135.817C261.184 148.322 251.361 158.465 239.24 158.465H229.05L227.641 210.427H214.874L205.46 148.471C204.41 141.562 209.587 135.319 216.365 135.319H261.174V135.319Z" fill="#6277D7"/>
<path d="M267.644 108.71L267.19 124.881C267.067 129.252 263.598 132.729 259.361 132.729H232.078L230.246 126.146L254.312 122.053L254.482 108.622L267.644 108.71Z" fill="#FCBEB7"/>
<path d="M259.553 129.367C259.553 130.645 260.11 131.789 260.987 132.555C263.808 131.94 266.074 129.759 266.878 126.923C266.143 125.874 264.948 125.192 263.599 125.192C261.364 125.192 259.553 127.061 259.553 129.367Z" fill="#F9AFAB"/>
<path d="M254.481 108.623L250.787 122.653L254.311 122.053L254.481 108.623Z" fill="#65D34A"/>
<path d="M233.608 125.574L237.909 132.729H232.078L230.246 126.146L233.608 125.574Z" fill="#F9AFAB"/>
<path d="M186.726 106.767H222.301C223.813 106.767 225.142 107.8 225.559 109.299L232.078 132.729H246.503C247.197 132.729 247.759 133.309 247.759 134.024C247.759 134.74 247.197 135.319 246.503 135.319H232.798H228.44H190.17L183.468 111.229C182.846 108.994 184.472 106.767 186.726 106.767Z" fill="#4A5EA3"/>
<path d="M205.327 146.493C206.403 148.288 208.329 149.484 210.526 149.484C213.901 149.484 216.637 146.661 216.637 143.179C216.637 139.786 214.039 137.018 210.782 136.879C207.547 138.842 205.393 142.449 205.327 146.493Z" fill="#4A5EA3"/>
<path d="M206.546 124.02C207.273 123.954 207.786 123.014 207.693 121.92C207.599 120.825 206.935 119.992 206.209 120.058C205.482 120.124 204.969 121.064 205.062 122.158C205.155 123.252 205.82 124.086 206.546 124.02Z" fill="#89AEFF"/>
<path d="M260.488 89.7209C260.488 91.7597 262.09 93.4131 264.066 93.4131C265.492 93.4131 266.722 92.5532 267.297 91.3096C266.792 89.2943 265.751 87.4693 264.305 86.0379C264.226 86.0318 264.147 86.0295 264.066 86.0295C262.09 86.0295 260.488 87.6821 260.488 89.7209Z" fill="#6ED34A"/>
<path d="M211.059 89.0939C211.629 89.4899 212.316 89.721 213.055 89.721C215.031 89.721 216.632 88.0676 216.632 86.0296C216.632 85.4101 216.485 84.8262 216.223 84.3138L215.971 84.4317C213.887 85.4024 212.167 87.0391 211.059 89.0939Z" fill="#65D34A"/>
<path d="M139.314 122.388L126.826 226.566H124.347L136.835 122.388H139.314Z" fill="#D2DCFF"/>
<path d="M85.6601 161.903L78.1002 226.566H75.6217L83.1801 161.903H85.6601Z" fill="#D2DCFF"/>
<path d="M52.2538 161.902L51.4036 169.175L44.6946 226.565H42.2155L48.9575 168.891L49.7746 161.902H52.2538Z" fill="#D2DCFF"/>
<path d="M85.6601 226.565H83.1801L82.1354 217.623L80.8954 207.019L76.8182 172.14L75.6217 161.902H78.1009L79.332 172.432L82.1354 196.414L83.3746 207.017L85.6601 226.565Z" fill="#D2DCFF"/>
<path d="M119.065 226.565H116.586L110.719 176.375H110.719L109.027 161.902H111.506L113.231 176.655L119.065 226.565Z" fill="#D2DCFF"/>
<path d="M52.3748 118.676H49.8956V157.791H52.3748V118.676Z" fill="#D2DCFF"/>
<path d="M86.0645 118.676H83.5853V157.791H86.0645V118.676Z" fill="#D2DCFF"/>
<path d="M112.547 157.791H78.4833C79.5833 157.791 80.4755 158.712 80.4755 159.847C80.4755 160.982 79.5833 161.902 78.4833 161.902H112.547C113.647 161.902 114.54 160.982 114.54 159.847C114.54 158.712 113.647 157.791 112.547 157.791Z" fill="#D2DCFF"/>
<path d="M80.4755 159.847C80.4755 158.712 79.5833 157.791 78.4833 157.791H52.4278H49.0712C47.9712 157.791 47.079 158.712 47.079 159.847C47.079 160.982 47.9712 161.902 49.0712 161.902H52.4278H78.4833C79.5833 161.902 80.4755 160.982 80.4755 159.847Z" fill="#86A2E2"/>
<path d="M87.1003 118.676H48.8596C46.7797 118.676 45.0933 116.936 45.0933 114.79V93.1265C45.0933 90.9805 46.7797 89.2404 48.8596 89.2404H87.1003C89.1802 89.2404 90.8667 90.9805 90.8667 93.1265V114.79C90.8667 116.937 89.1809 118.676 87.1003 118.676Z" fill="#D2DCFF"/>
<path d="M52.2539 161.902L51.4037 169.175C50.5078 169.071 49.6892 168.976 48.9576 168.891L49.7747 161.902H52.2539Z" fill="#AEC3FF"/>
<path d="M78.1009 161.902L79.332 172.433C78.4899 172.336 77.6515 172.238 76.8182 172.14L75.6217 161.902H78.1009Z" fill="#AEC3FF"/>
<path d="M113.231 176.655C112.431 176.567 111.592 176.473 110.719 176.376H110.719L109.027 161.902H111.506L113.231 176.655Z" fill="#AEC3FF"/>
<path d="M49.8956 118.676H52.3748V124.079L49.8956 123.796V118.676Z" fill="#AEC3FF"/>
<path d="M86.0645 118.676V127.927L83.5853 127.644V118.676H86.0645Z" fill="#AEC3FF"/>
<path d="M90.9138 50.0335C88.0007 55.0058 79.0969 62.1606 65.8574 57.7934V57.7941C65.8161 57.788 65.7748 57.7843 65.7314 57.7843C62.5817 57.7843 62.3622 66.822 67.6625 67.3442C67.7406 67.6095 67.8208 67.8611 67.9026 68.0975V82.7948H79.858V77.0822C80.6913 77.3247 81.49 77.4637 82.2216 77.4637C87.1667 77.4637 95.7632 69.5928 95.9585 57.1935C94.6352 56.8864 90.9138 53.5029 90.9138 50.0335Z" fill="#FCBEB7"/>
<path d="M98.47 53.5881C98.47 45.4215 91.4893 38.8041 81.0214 38.8041C72.3217 38.8041 69.332 43.7573 69.332 43.7573C69.332 43.7573 61.109 45.5909 61.109 56.1338C61.109 65.934 61.109 82.7956 61.109 82.7956H74.6204H75.3093H85.288H96.1353V60.8385C96.9921 59.753 98.47 57.338 98.47 53.5881ZM82.2216 77.4645C81.49 77.4645 80.6913 77.3254 79.8581 77.0829V82.7956H67.9026V68.0983C67.8208 67.8626 67.7406 67.6103 67.6625 67.345C62.3623 66.822 62.5817 57.785 65.7314 57.785C65.7741 57.785 65.8161 57.7888 65.8574 57.7948V57.7941C79.0969 62.1613 88.0007 55.0058 90.9139 50.0342C90.9139 53.5036 94.6352 56.8864 95.9592 57.195C95.7632 69.5935 87.1667 77.4645 82.2216 77.4645Z" fill="#311643"/>
<path d="M58.5392 81.7115L67.9026 77.2357L73.0415 77.3763L79.8581 77.7078L89.6548 80.7765V93.6738H58.5392V81.7115Z" fill="#FCBEB7"/>
<path d="M89.6547 94.4636V80.7773L79.858 77.7085V77.0829C77.0878 76.2764 73.9389 74.3227 71.627 72.4998L89.6547 94.4636Z" fill="#F9AFAB"/>
<path d="M73.4726 67.6627C75.2739 67.6627 76.7342 66.156 76.7342 64.2974C76.7342 62.4388 75.2739 60.9321 73.4726 60.9321C71.6712 60.9321 70.2109 62.4388 70.2109 64.2974C70.2109 66.156 71.6712 67.6627 73.4726 67.6627Z" fill="#F49795"/>
<path d="M95.5393 61.5029C95.1259 63.7629 94.4327 65.8239 93.5574 67.6575C91.8327 67.5693 90.4608 66.0982 90.4608 64.2966C90.4608 62.438 91.9211 60.9321 93.7217 60.9321C94.3944 60.9321 95.0198 61.1426 95.5393 61.5029Z" fill="#F49795"/>
<path d="M90.0225 54.0625C87.6413 54.0625 85.6748 55.9308 85.4273 58.3208C84.1328 57.6922 82.9901 58.0328 82.3867 58.3186C82.1377 55.9294 80.1727 54.0625 77.7922 54.0625C75.2437 54.0625 73.1705 56.2016 73.1705 58.831C73.1705 61.4605 75.2437 63.5996 77.7922 63.5996C80.2839 63.5996 82.3204 61.5547 82.4095 59.0059C82.7934 58.7778 84.0127 58.1971 85.4044 59.0112C85.4965 61.5571 87.5321 63.5996 90.0217 63.5996C92.5701 63.5996 94.6434 61.4605 94.6434 58.831C94.6434 56.2016 92.5709 54.0625 90.0225 54.0625ZM77.7922 62.9762C75.5775 62.9762 73.7746 61.1169 73.7746 58.831C73.7746 56.5459 75.5768 54.6864 77.7922 54.6864C80.0076 54.6864 81.8097 56.5459 81.8097 58.831C81.8097 61.1169 80.0076 62.9762 77.7922 62.9762ZM90.0225 62.9762C87.8078 62.9762 86.0049 61.1169 86.0049 58.831C86.0049 56.5459 87.807 54.6864 90.0225 54.6864C92.2379 54.6864 94.04 56.5459 94.04 58.831C94.04 61.1169 92.2379 62.9762 90.0225 62.9762Z" fill="white"/>
<path d="M90.0253 61.8808C89.6613 61.8808 89.366 61.576 89.366 61.2005V59.9295C89.366 59.5532 89.6613 59.2484 90.0253 59.2484C90.3892 59.2484 90.6847 59.5532 90.6847 59.9295V61.2005C90.6847 61.576 90.39 61.8808 90.0253 61.8808Z" fill="#311643"/>
<path d="M77.9925 61.8809C77.6286 61.8809 77.3331 61.576 77.3331 61.2005V59.9296C77.3331 59.5533 77.6286 59.2484 77.9925 59.2484C78.3572 59.2484 78.6519 59.5533 78.6519 59.9296V61.2005C78.6526 61.576 78.3572 61.8809 77.9925 61.8809Z" fill="#311643"/>
<path d="M82.7019 69.9638C81.5246 69.9638 80.723 69.5069 80.2375 69.0911C79.6252 68.5666 79.371 67.9941 79.36 67.9698C79.2914 67.8124 79.3593 67.6277 79.5118 67.557C79.6635 67.4863 79.8418 67.5562 79.9111 67.712C79.9457 67.7895 80.7819 69.5981 83.211 69.3084C83.3775 69.2887 83.5271 69.4111 83.5462 69.5829C83.5654 69.754 83.4468 69.9089 83.2803 69.9287C83.0777 69.9523 82.8846 69.9638 82.7019 69.9638Z" fill="#311643"/>
<path d="M109.764 221.705L98.7964 216.84L99.3586 219.644L85.8678 215.273V219.262C85.8678 220.665 86.5787 221.936 87.6964 222.651L88.8568 226.073C88.957 226.369 89.2274 226.568 89.5317 226.568C89.9266 226.568 90.2464 226.238 90.2464 225.83V223.604L99.4669 226.568H108.794C110.151 226.568 111.25 225.433 111.25 224.034C111.249 223.02 110.665 222.105 109.764 221.705Z" fill="#2F3D6C"/>
<path d="M133.679 221.705L122.712 216.84L123.274 219.644L109.783 215.273V219.262C109.783 220.665 110.494 221.936 111.612 222.651L112.772 226.073C112.872 226.369 113.143 226.568 113.447 226.568C113.842 226.568 114.162 226.238 114.162 225.83V223.604L123.382 226.568H132.709C134.066 226.568 135.165 225.433 135.165 224.034C135.165 223.02 134.581 222.105 133.679 221.705Z" fill="#2F3D6C"/>
<path d="M85.8678 209.967L85.8736 215.273L99.3586 219.644L98.7964 216.84L97.6765 216.25L98.6557 209.967H85.8678Z" fill="#FCBEB7"/>
<path d="M109.783 209.967L109.79 215.273L123.275 219.644L122.712 216.84L121.592 216.252L122.571 209.967H109.783Z" fill="#FCBEB7"/>
<path d="M76.1941 134.735V135.233C76.1845 147.76 86.024 157.92 98.165 157.92H108.371L109.784 209.968H122.572L132.001 147.91C133.052 140.99 127.867 134.736 121.078 134.736H76.1941V134.735Z" fill="#6277D7"/>
<path d="M107.493 151.802L108.371 157.919H106.508L107.493 151.802Z" fill="#4A5EA3"/>
<path d="M56.1316 144.19C56.7718 151.955 63.0666 157.92 70.6191 157.92H84.4555L85.8679 209.968H98.6558L107.985 148.566C109.089 141.301 103.646 134.736 96.5192 134.736H95.4958L92.5606 125.683H58.8744L56.3135 140.239C56.0836 141.542 56.0225 142.87 56.1316 144.19Z" fill="#6277D7"/>
<path d="M75.7948 87.8539C78.0655 87.8539 79.8816 85.5977 81.1061 83.3127H68.1567C70.1313 85.5917 72.8367 87.8539 75.7948 87.8539Z" fill="white"/>
<path d="M100.131 88.2021L99.2348 86.763C98.0714 84.8945 96.4344 83.4076 94.5173 82.4528C93.9832 82.1875 93.4284 81.9632 92.8545 81.7831L82.8773 78.6481C82.8773 79.0205 82.2496 81.1796 81.1061 83.3134C79.8816 85.5985 78.0655 87.8546 75.7948 87.8546C72.8367 87.8546 70.1321 85.5924 68.1568 83.3134C66.1528 81.001 64.9011 78.6709 64.9011 78.6709L55.9856 82.9333C52.3372 84.678 49.6502 88.034 48.6792 92.0614L44.7051 105.165C44.025 107.407 43.6787 109.743 43.6787 112.093V113.178C43.6787 115.995 45.892 118.278 48.6217 118.278H58.1266L58.8744 125.683H92.5598L101.05 89.6783L100.131 88.2021Z" fill="#FF9078"/>
<path d="M76.1271 91.1045C74.2543 91.1045 72.349 90.5169 70.4629 89.3568C68.9658 88.4362 67.4776 87.1553 66.0395 85.5483C63.5986 82.8223 62.111 80.0386 62.0963 80.0112L62.5973 79.7716C62.6113 79.799 64.0539 82.4969 66.4513 85.1727C67.8526 86.7364 69.2989 87.9817 70.7495 88.8726C72.5472 89.9772 74.3567 90.5366 76.1271 90.5366C77.7981 90.5366 79.3033 89.9612 80.6007 88.8262C81.6506 87.9079 82.5716 86.6223 83.3371 85.0062C84.6529 82.2278 85.0552 79.3605 85.0589 79.3323L85.6056 79.5042C85.5894 79.622 85.1871 82.3851 83.8366 85.2434C83.038 86.934 82.0706 88.2834 80.9617 89.2549C79.5612 90.4826 77.9344 91.1045 76.1271 91.1045Z" fill="white"/>
<path d="M132.01 147.84C130.893 149.082 129.297 149.859 127.525 149.859C124.144 149.859 121.403 147.031 121.403 143.542C121.403 140.054 124.144 137.227 127.525 137.227C127.684 137.227 127.842 137.233 127.999 137.245C130.941 139.688 132.625 143.638 132.01 147.84Z" fill="#4A5EA3"/>
<path d="M108.126 146.544C107.091 148.518 105.067 149.859 102.74 149.859C99.3586 149.859 96.6187 147.031 96.6187 143.542C96.6187 140.054 99.3586 137.227 102.74 137.227C103.069 137.227 103.392 137.254 103.707 137.306C106.38 139.487 108.084 142.845 108.126 146.544Z" fill="#4A5EA3"/>
<path d="M48.1236 118.277H85.0846V113.464L48.6312 109.136C45.9929 108.823 43.6787 110.951 43.6787 113.692C43.6794 116.225 45.6688 118.277 48.1236 118.277Z" fill="#FCBEB7"/>
<path d="M131.324 89.6775H93.5581C92.0441 89.6775 90.7128 90.7122 90.2951 92.2143L83.7651 115.682H69.346C68.6645 115.682 68.0832 116.229 68.0596 116.932C68.0346 117.67 68.6063 118.277 69.3166 118.277H87.4084H125.742L133.044 92.0326C133.372 90.8536 132.514 89.6775 131.324 89.6775Z" fill="#4A5EA3"/>
<path d="M111.067 105.025C111.161 103.929 110.647 102.987 109.919 102.921C109.191 102.855 108.526 103.69 108.432 104.786C108.339 105.881 108.853 106.823 109.581 106.889C110.308 106.955 110.974 106.121 111.067 105.025Z" fill="#2F3D6C"/>
<path d="M58.8736 125.683L57.5261 133.341L93.3341 128.07L92.5598 125.683H58.8736Z" fill="#4A5EA3"/>
<path d="M56.9361 85.1196C56.9361 87.4305 55.1207 89.3035 52.8802 89.3035C51.8568 89.3035 50.9219 88.912 50.208 88.2666C51.5614 85.961 53.561 84.0918 55.9849 82.9326L56.2568 82.8025C56.6863 83.4661 56.9361 84.2636 56.9361 85.1196Z" fill="#FF9878"/>
<path d="M100.131 88.202C99.5022 88.6156 98.7559 88.8542 97.9558 88.8542C95.716 88.8542 93.8999 86.9812 93.8999 84.6702C93.8999 83.8561 94.1261 83.0952 94.5166 82.4521C96.4344 83.4068 98.0714 84.8937 99.234 86.7622L100.131 88.202Z" fill="#FFB978"/>
<path d="M87.1623 103.474C87.0054 104.037 80.1462 111.659 80.1462 111.659L61.8694 110.708L84.4061 113.384L87.1623 103.474Z" fill="#FFA978"/>
<path d="M14.9679 122.389L11.6268 150.261L2.47991 226.566H0L9.12108 150.479L12.4888 122.389H14.9679Z" fill="#D2DCFF"/>
<path d="M47.7818 226.566H45.3026L35.9022 148.149L32.8145 122.389H35.2936L38.3563 147.935L47.7818 226.566Z" fill="#D2DCFF"/>
<path d="M12.4888 122.389H14.968L11.6268 150.261L9.12109 150.479L12.4888 122.389Z" fill="#AEC3FF"/>
<path d="M35.2936 122.389L38.3563 147.935L35.9022 148.149L32.8145 122.389H35.2936Z" fill="#AEC3FF"/>
<path d="M172.128 226.566H169.649L158.965 137.44L157.161 122.389H159.64L161.42 137.227L172.128 226.566Z" fill="#D2DCFF"/>
<path d="M161.42 137.227L158.965 137.44L157.161 122.389H159.64L161.42 137.227Z" fill="#AEC3FF"/>
<path d="M166.211 118.277H39.757V122.388H166.211C167.311 122.388 168.204 121.468 168.204 120.333C168.204 119.198 167.311 118.277 166.211 118.277Z" fill="#D2DCFF"/>
<path d="M14.017 118.277H6.54467C5.44469 118.277 4.55249 119.198 4.55249 120.333C4.55249 121.468 5.44469 122.388 6.54467 122.388H14.017H39.757V118.277H14.017Z" fill="#86A2E2"/>
<path d="M48.1849 116.736C49.8145 116.736 51.1356 115.373 51.1356 113.692C51.1356 112.01 49.8145 110.647 48.1849 110.647C46.5552 110.647 45.2341 112.01 45.2341 113.692C45.2341 115.373 46.5552 116.736 48.1849 116.736Z" fill="#F9AFAB"/>
<path d="M170.463 4.50783V35.8296C170.463 36.9349 169.594 37.831 168.523 37.831H132.03C130.959 37.831 130.09 36.9349 130.09 35.8296V4.50783C130.09 3.40253 130.958 2.50624 132.03 2.50624H168.523C169.594 2.50624 170.463 3.40253 170.463 4.50783Z" fill="#FFD9E8"/>
<path d="M170.463 4.50783V10.413H130.09V4.50783C130.09 3.40253 130.959 2.50624 132.03 2.50624H168.523C169.594 2.50624 170.463 3.40253 170.463 4.50783Z" fill="#FE9ECC"/>
<path d="M141.031 5.01336C140.477 5.01336 140.03 4.55125 140.03 3.98036V1.033C140.03 0.462863 140.478 0 141.031 0C141.584 0 142.032 0.462863 142.032 1.033V3.98036C142.033 4.55125 141.584 5.01336 141.031 5.01336Z" fill="#FE9ECC"/>
<path d="M159.521 5.01336C158.968 5.01336 158.52 4.55125 158.52 3.98036V1.033C158.52 0.462863 158.969 0 159.521 0C160.075 0 160.523 0.462863 160.523 1.033V3.98036C160.523 4.55125 160.075 5.01336 159.521 5.01336Z" fill="#FE9ECC"/>
<path d="M141.619 24.9999L145.928 21.0068C146.148 20.8023 146.366 20.5704 146.586 20.3112C146.806 20.0527 146.915 19.751 146.915 19.4059C146.915 19.0182 146.779 18.7132 146.508 18.492C146.236 18.2708 145.918 18.1605 145.552 18.1605C145.113 18.1605 144.771 18.3004 144.526 18.5809C144.281 18.8614 144.142 19.2066 144.111 19.6156L141.76 19.4378C141.791 18.8448 141.911 18.3302 142.121 17.8939C142.33 17.4575 142.606 17.0934 142.951 16.8022C143.296 16.5111 143.7 16.2928 144.165 16.1476C144.63 16.0024 145.134 15.9296 145.677 15.9296C146.179 15.9296 146.649 16.0024 147.087 16.1476C147.525 16.2928 147.907 16.5088 148.231 16.7946C148.555 17.0804 148.808 17.4385 148.992 17.8703C149.174 18.3013 149.266 18.803 149.266 19.3739C149.266 19.7403 149.229 20.0717 149.156 20.3681C149.083 20.6646 148.981 20.9345 148.85 21.1762C148.72 21.4187 148.565 21.643 148.388 21.8475C148.211 22.0527 148.017 22.2518 147.808 22.4456L144.439 25.437H149.359V27.5717H141.618V24.9999H141.619Z" fill="#FE9ECC"/>
<path d="M154.907 23.4803C154.782 23.5122 154.656 23.5395 154.531 23.5608C154.406 23.5829 154.275 23.5928 154.139 23.5928C153.617 23.5928 153.142 23.4964 152.714 23.3017C152.285 23.1079 151.919 22.8434 151.616 22.5096C151.314 22.1759 151.079 21.7797 150.911 21.3213C150.744 20.8637 150.661 20.3758 150.661 19.8581C150.661 19.2652 150.768 18.7293 150.982 18.2496C151.196 17.7699 151.489 17.3578 151.86 17.0126C152.23 16.6675 152.666 16.4007 153.168 16.2122C153.67 16.0237 154.213 15.9295 154.798 15.9295C155.372 15.9295 155.912 16.0237 156.419 16.2122C156.926 16.4007 157.365 16.6675 157.736 17.0126C158.107 17.3578 158.399 17.7699 158.613 18.2496C158.827 18.7293 158.935 19.2659 158.935 19.8581C158.935 20.2679 158.898 20.6419 158.825 20.9817C158.752 21.3215 158.655 21.6422 158.535 21.944C158.415 22.2458 158.274 22.5338 158.112 22.809C157.95 23.0842 157.781 23.3671 157.603 23.6583L155.174 27.5709H152.307L154.907 23.4803ZM153.01 19.9554C153.01 20.473 153.175 20.901 153.504 21.2408C153.833 21.5806 154.264 21.7502 154.797 21.7502C155.33 21.7502 155.761 21.5806 156.09 21.2408C156.419 20.901 156.584 20.473 156.584 19.9554C156.584 19.4377 156.419 19.0098 156.09 18.67C155.761 18.3302 155.33 18.1605 154.797 18.1605C154.264 18.1605 153.833 18.3302 153.504 18.67C153.175 19.0098 153.01 19.4384 153.01 19.9554Z" fill="#FE9ECC"/>
<path d="M154.914 33.5869H145.639C145.413 33.5869 145.23 33.3984 145.23 33.1658C145.23 32.9332 145.413 32.7447 145.639 32.7447H154.914C155.14 32.7447 155.323 32.9332 155.323 33.1658C155.323 33.3984 155.14 33.5869 154.914 33.5869Z" fill="#FE9ECC"/>
</svg>
