<svg width="315" height="322" viewBox="0 0 315 322" fill="none" xmlns="http://www.w3.org/2000/svg">
<path d="M11.0022 235.979C29.968 268.297 90.1635 293.092 108.648 287.124C127.132 281.155 123.64 272.625 114.835 267.504C113.398 266.668 111.254 265.688 108.588 264.47C94.9114 258.22 67.4927 245.69 51.2816 214.132C38.4214 189.096 42.5854 167.01 45.4589 151.767C46.9138 144.05 48.0379 138.088 46.4544 134.385C41.7426 123.369 32.7814 113.695 16.421 133.259C0.0609784 152.823 -7.96306 203.66 11.0022 235.979Z" fill="#6783E9" fill-opacity="0.31"/>
<path d="M60.4809 157.991C67.0229 209.66 103.415 246.334 126.327 265.177C149.24 284.021 196.155 298.319 232.541 277.92C256.386 264.553 253.933 245.459 251.37 225.499C250.021 214.999 248.642 204.259 251.043 193.987C252.632 187.188 255.216 180.234 257.879 173.07C266.888 148.831 276.791 122.19 252.035 91.0429C235.787 70.5998 217.876 70.9371 197.689 71.3173C178.029 71.6877 156.21 72.0982 131.667 53.3947C81.9229 15.4861 53.9395 106.321 60.4809 157.991Z" fill="#6783E9" fill-opacity="0.32"/>
<path d="M161.245 92.5441C170.338 94.0878 181.667 90.6409 183.088 88.4456C186.379 93.5551 188.052 93.3952 188.052 93.3952V97.2269L188.795 96.4699C189.025 95.9421 189.389 95.4179 189.933 95.4179C192.927 95.4179 193.136 103.899 188.097 104.39C187.998 104.722 187.895 105.033 187.79 105.314V118.89H176.425V113.55C175.661 113.764 174.928 113.886 174.256 113.886C169.775 113.886 162.139 107.175 161.273 96.4699C161.221 94.4501 161.245 92.5441 161.245 92.5441Z" fill="#FCBEB7"/>
<path d="M175.04 78.0144C182.878 78.0144 184.446 82.272 184.446 82.272C187.791 82.272 192.912 88.4994 189.828 95.4179L189.812 95.4341L188.051 97.2276V93.3959C188.051 93.3959 186.379 93.5558 183.087 88.4463C181.666 90.6409 170.336 94.0878 161.244 92.5448C161.244 92.5448 161.221 94.4507 161.273 96.4706C161.273 96.4727 161.273 96.4749 161.273 96.477C157.877 86.471 164.694 78.0144 175.04 78.0144Z" fill="#311643"/>
<path d="M178.411 99.3933C178.757 99.3933 179.038 99.1074 179.038 98.7544V97.5616C179.038 97.2085 178.757 96.9227 178.411 96.9227C178.064 96.9227 177.783 97.2085 177.783 97.5616V98.7544C177.784 99.1067 178.065 99.3933 178.411 99.3933Z" fill="#311643"/>
<path d="M166.784 99.3933C167.13 99.3933 167.411 99.1074 167.411 98.7544V97.5616C167.411 97.2085 167.13 96.9227 166.784 96.9227C166.437 96.9227 166.157 97.2085 166.157 97.5616V98.7544C166.157 99.1067 166.438 99.3933 166.784 99.3933Z" fill="#311643"/>
<path d="M173.8 106.848C174.919 106.848 175.681 106.419 176.143 106.029C176.725 105.536 176.967 104.999 176.978 104.977C177.043 104.83 176.978 104.656 176.834 104.59C176.689 104.523 176.52 104.589 176.454 104.735C176.421 104.808 175.627 106.506 173.317 106.233C173.159 106.215 173.017 106.329 172.998 106.49C172.979 106.651 173.093 106.796 173.25 106.815C173.443 106.837 173.626 106.848 173.8 106.848Z" fill="#311643"/>
<path d="M182.574 104.688C180.862 104.688 179.473 103.274 179.473 101.53C179.473 99.7856 180.862 98.3716 182.574 98.3716C184.287 98.3716 185.675 99.7856 185.675 101.53C185.675 103.274 184.287 104.688 182.574 104.688Z" fill="#F49795"/>
<path d="M161.596 98.9079C161.989 101.029 162.648 102.963 163.481 104.684C165.121 104.601 166.425 103.221 166.425 101.53C166.425 99.7859 165.037 98.3724 163.325 98.3724C162.685 98.3724 162.089 98.5698 161.596 98.9079Z" fill="#F49795"/>
<path d="M166.784 91.9257C169.048 91.9257 170.917 93.6788 171.152 95.9216C172.383 95.3315 173.47 95.6513 174.043 95.9195C174.279 93.6774 176.147 91.9257 178.411 91.9257C180.833 91.9257 182.804 93.9335 182.804 96.4005C182.804 98.8676 180.833 100.875 178.411 100.875C176.043 100.875 174.107 98.9567 174.021 96.5654C173.657 96.3553 172.488 95.8112 171.174 96.5689C171.086 98.9581 169.151 100.875 166.785 100.875C164.362 100.875 162.391 98.8676 162.391 96.4005C162.391 93.9335 164.361 91.9257 166.784 91.9257ZM178.411 100.29C180.517 100.29 182.23 98.5456 182.23 96.4005C182.23 94.2554 180.517 92.5108 178.411 92.5108C176.304 92.5108 174.591 94.2554 174.591 96.4005C174.591 98.5456 176.305 100.29 178.411 100.29ZM166.784 100.29C168.89 100.29 170.603 98.5456 170.603 96.4005C170.603 94.2554 168.89 92.5108 166.784 92.5108C164.678 92.5108 162.965 94.2554 162.965 96.4005C162.965 98.5456 164.678 100.29 166.784 100.29Z" fill="white"/>
<path d="M176.425 118.889V113.55C178.995 112.831 181.921 111.068 184.12 109.388L176.425 118.889Z" fill="#F9AFAB"/>
<path d="M149.258 291.31H161.295L181.534 200.658L202.269 291.31H214.307L203.091 189.608H158.621L149.258 291.31Z" fill="#6277D7"/>
<path d="M160.339 296.239V304.903C160.339 305.913 159.535 306.732 158.543 306.732H134.415C134.185 306.732 134 306.543 134 306.309V304.641C134 303.912 134.41 303.247 135.054 302.93L148.659 296.24H160.339V296.239Z" fill="#2F3D6C"/>
<path d="M203.579 296.239V304.903C203.579 305.913 204.383 306.732 205.375 306.732H229.502C229.731 306.732 229.917 306.543 229.917 306.309V304.641C229.917 303.912 229.507 303.247 228.863 302.93L215.258 296.24H203.579V296.239Z" fill="#2F3D6C"/>
<path d="M161.295 291.31L160.388 296.239H148.659L149.258 291.31H161.295Z" fill="#FCBEB7"/>
<path d="M214.306 291.31L215.258 296.239H203.579L202.269 291.31H214.306Z" fill="#FCBEB7"/>
<path d="M203.331 191.789L158.18 194.387L158.621 189.608H203.091" fill="#4A5EA3"/>
<path d="M161.566 145.777L158.62 189.609H203.09L200.365 158.375L200.97 141.707L203.278 144.051L213.54 136.016L208.026 126.864C206.662 124.6 204.691 122.781 202.345 121.622L189.696 115.369L189.234 115.14L187.79 114.427C187.79 114.427 181.189 118.839 176.444 114.427L173.909 115.4L173.394 115.598L159.988 120.744C157.889 121.55 156.18 123.158 155.225 125.226L149.54 137.544L161.566 145.777Z" fill="#63985E"/>
<path d="M173.91 115.399C176.085 116.972 178.677 117.82 181.399 117.82C184.266 117.82 186.991 116.879 189.234 115.14L189.696 115.368C187.339 117.261 184.446 118.288 181.398 118.288C178.476 118.288 175.696 117.344 173.394 115.597L173.91 115.399Z" fill="white"/>
<path d="M202.897 123.115C202.897 125.265 204.609 127.007 206.72 127.007C207.162 127.007 207.586 126.931 207.981 126.79C206.761 124.792 205.065 123.146 203.056 122C202.953 122.353 202.897 122.727 202.897 123.115Z" fill="#4A62D3"/>
<path d="M200.588 235.928C197.405 235.928 194.826 233.3 194.826 230.059C194.826 226.818 197.405 224.191 200.588 224.191C203.77 224.191 206.349 226.818 206.349 230.059C206.349 233.3 203.77 235.928 200.588 235.928Z" fill="#4A5EA3"/>
<path d="M162.148 235.928C158.966 235.928 156.386 233.3 156.386 230.059C156.386 226.818 158.966 224.191 162.148 224.191C165.33 224.191 167.91 226.818 167.91 230.059C167.91 233.3 165.33 235.928 162.148 235.928Z" fill="#4A5EA3"/>
<path d="M181.039 183.804L217.256 194.33C217.852 194.504 218.473 194.152 218.642 193.545L225.134 170.373C225.305 169.766 224.959 169.134 224.363 168.961L188.147 158.435C187.551 158.262 186.93 158.614 186.76 159.221L180.268 182.392C180.098 182.999 180.443 183.632 181.039 183.804Z" fill="#4A5EA3"/>
<path d="M167.978 144.723H177.7C178.023 144.723 178.286 144.457 178.286 144.127V125.613C178.286 125.284 178.024 125.016 177.7 125.016H167.978C167.655 125.016 167.392 125.283 167.392 125.613V144.127C167.392 144.456 167.654 144.723 167.978 144.723Z" fill="#4A5EA3"/>
<path d="M141.435 157.058L149.541 137.543L155.726 141.755L164.415 134L166.191 127.798C166.216 127.6 166.369 127.444 166.563 127.418C167.415 127.304 168.145 128.034 168.047 128.903L167.742 131.62L170.967 132.056C171.837 132.173 172.721 132.095 173.558 131.827L176.558 130.867C177.459 130.578 178.417 131.099 178.684 132.02L179.842 131.747C180.407 131.614 180.973 131.964 181.119 132.535L181.127 132.567C181.252 133.059 181.028 133.573 180.586 133.808C180.822 134.749 180.274 135.709 179.355 135.964L179.328 135.971C179.576 136.918 179.117 137.91 178.241 138.317L175.971 139.373C175.117 139.77 174.182 139.951 173.245 139.899L168.088 139.472L150.577 162.783L150.573 162.787C149.024 164.67 146.384 165.317 144.121 164.239C141.471 162.975 140.282 159.798 141.435 157.058Z" fill="#FCBEB7"/>
<path d="M155.094 125.512C155.508 125.676 155.957 125.766 156.428 125.766C158.469 125.766 160.124 124.08 160.124 122C160.124 121.569 160.053 121.154 159.922 120.769C157.854 121.583 156.171 123.178 155.227 125.225L155.094 125.512Z" fill="#4A62D3"/>
<path d="M154.62 142.742L145.237 147.904L143.116 153.01L154.62 142.742Z" fill="#F9AFAB"/>
<path d="M203.114 190.222L216.397 166.646L213.587 165.829L203.114 190.222Z" fill="#2F3D6C"/>
<path d="M146.761 163.393C144.748 163.393 143.116 161.73 143.116 159.68C143.116 157.629 144.748 155.967 146.761 155.967C148.774 155.967 150.406 157.629 150.406 159.68C150.406 161.73 148.774 163.393 146.761 163.393Z" fill="#F9AFAB"/>
<path d="M216.035 149.111C216.035 151.027 217.379 152.625 219.161 152.976L219.811 151.434C220.466 149.885 220.365 148.112 219.54 146.651L218.797 145.335C217.2 145.819 216.035 147.326 216.035 149.111Z" fill="#F9AFAB"/>
<path d="M193.206 185.952L197.728 183.896C198.042 183.754 198.285 183.488 198.402 183.16L199.057 181.321L196.772 181.892L196.043 183.486C195.798 184.022 195.178 184.263 194.644 184.029L195.596 181.103C195.774 180.638 196.117 180.257 196.557 180.036L201.333 177.644L209.571 150.428L203.277 144.051L213.539 136.016L219.539 146.651C220.364 148.114 220.464 149.886 219.811 151.435L203.158 190.223L199.853 190.378C199.455 190.397 199.08 190.192 198.876 189.845L198.516 189.233L196.777 189.378C196.404 189.409 196.043 189.242 195.82 188.936L195.41 188.373L195.167 188.439C194.5 188.618 193.801 188.308 193.475 187.691L192.268 188.1C191.996 187.245 192.401 186.319 193.206 185.952Z" fill="#FCBEB7"/>
<path d="M100.375 92.7731C100.375 85.1724 92.7279 79.0144 81.2615 79.0144C71.732 79.0144 68.4569 83.6244 68.4569 83.6244C68.4569 83.6244 59.4496 85.3309 59.4496 95.1432C59.4496 104.264 59.4496 119.957 59.4496 119.957H74.2499H75.0045H85.9351H97.817V99.5219C98.7564 98.5109 100.375 96.2631 100.375 92.7731ZM82.577 114.995C81.7756 114.995 80.9007 114.865 79.988 114.64V119.956H66.8921V106.278C66.8025 106.058 66.7146 105.824 66.6291 105.577C60.8232 105.091 61.0636 96.6791 64.5137 96.6791C64.5605 96.6791 64.6066 96.6827 64.6518 96.6883V96.6876C79.1543 100.752 88.9074 94.0925 92.0984 89.4655C92.0984 92.6945 96.1748 95.8429 97.625 96.1301C97.4095 107.669 87.993 114.995 82.577 114.995Z" fill="#311643"/>
<path d="M79.9872 115.372V114.64C80.8999 114.865 81.7747 114.995 82.576 114.995C87.9929 114.995 97.4094 107.669 97.6233 96.1295C96.1731 95.8422 92.0968 92.6939 92.0968 89.4649C88.9058 94.0926 79.1527 100.752 64.6502 96.687V96.6877C64.605 96.682 64.5598 96.6785 64.5121 96.6785C61.062 96.6785 60.8215 105.09 66.6274 105.576C66.7129 105.823 66.8009 106.058 66.8905 106.277V115.479L56.6339 119.717V130.815H90.7175V119.612L79.9872 115.372Z" fill="#FCBEB7"/>
<path d="M90.7183 130.816V119.613L79.9871 115.372V114.64C76.9527 113.889 73.5034 112.071 70.9709 110.374L90.7183 130.816Z" fill="#F9AFAB"/>
<path d="M72.9934 105.872C74.9665 105.872 76.5661 104.47 76.5661 102.74C76.5661 101.011 74.9665 99.6083 72.9934 99.6083C71.0202 99.6083 69.4206 101.011 69.4206 102.74C69.4206 104.47 71.0202 105.872 72.9934 105.872Z" fill="#F49795"/>
<path d="M97.1641 100.14C96.7114 102.244 95.952 104.162 94.9932 105.868C93.104 105.786 91.6013 104.417 91.6013 102.74C91.6013 101.01 93.2007 99.6089 95.1731 99.6089C95.91 99.6082 96.5952 99.8042 97.1641 100.14Z" fill="#F49795"/>
<path d="M91.121 93.2151C88.5127 93.2151 86.3587 94.9534 86.0876 97.1785C84.6696 96.5934 83.4179 96.9104 82.757 97.1764C82.4842 94.9527 80.3317 93.2151 77.7242 93.2151C74.9327 93.2151 72.6617 95.206 72.6617 97.6533C72.6617 100.1 74.9327 102.091 77.7242 102.091C80.4536 102.091 82.6842 100.188 82.7819 97.816C83.2024 97.6037 84.538 97.0632 86.0633 97.8209C86.1642 100.19 88.394 102.091 91.121 102.091C93.9126 102.091 96.1837 100.1 96.1837 97.6533C96.1845 95.206 93.9134 93.2151 91.121 93.2151ZM77.7242 101.511C75.2982 101.511 73.3234 99.78 73.3234 97.6533C73.3234 95.5258 75.2974 93.7953 77.7242 93.7953C80.151 93.7953 82.125 95.5258 82.125 97.6533C82.125 99.78 80.151 101.511 77.7242 101.511ZM91.121 101.511C88.6951 101.511 86.7202 99.78 86.7202 97.6533C86.7202 95.5258 88.6943 93.7953 91.121 93.7953C93.5478 93.7953 95.5218 95.5258 95.5218 97.6533C95.5218 99.78 93.5478 101.511 91.121 101.511Z" fill="white"/>
<path d="M91.125 100.833C90.7264 100.833 90.4028 100.549 90.4028 100.2V99.0173C90.4028 98.6678 90.7264 98.3842 91.125 98.3842C91.5237 98.3842 91.8474 98.6678 91.8474 99.0173V100.2C91.8474 100.549 91.5237 100.833 91.125 100.833Z" fill="#311643"/>
<path d="M77.9445 100.833C77.5451 100.833 77.2222 100.549 77.2222 100.2V99.0173C77.2222 98.6678 77.5459 98.3842 77.9445 98.3842C78.3432 98.3842 78.6668 98.6678 78.6668 99.0173V100.2C78.6668 100.549 78.3432 100.833 77.9445 100.833Z" fill="#311643"/>
<path d="M83.1024 108.013C81.8127 108.013 80.9346 107.588 80.4027 107.201C79.7321 106.713 79.4537 106.181 79.4416 106.158C79.3666 106.012 79.4408 105.84 79.6078 105.774C79.7741 105.708 79.9694 105.773 80.0452 105.918C80.0832 105.99 80.9992 107.673 83.66 107.404C83.8424 107.385 84.0062 107.499 84.0272 107.658C84.0482 107.818 83.9182 107.962 83.7358 107.98C83.5139 108.004 83.3033 108.013 83.1024 108.013Z" fill="#311643"/>
<path d="M104.762 292.257L106.117 297.195L120.894 301.263L118.769 292.257H104.762Z" fill="#FCBEB7"/>
<path d="M54.9713 292.257L55.3748 298.357L54.454 298.654L53.8472 301.265L68.6103 297.195L68.9792 292.257H54.9713Z" fill="#FCBEB7"/>
<path d="M132.292 303.181L120.279 298.654L120.894 301.264L106.117 297.195V300.907C106.117 302.212 106.895 303.395 108.12 304.061L109.391 307.246C109.501 307.521 109.797 307.706 110.13 307.706C110.563 307.706 110.913 307.399 110.913 307.02V304.948L121.013 307.706H131.23C132.716 307.706 133.92 306.65 133.92 305.348C133.92 304.405 133.279 303.553 132.292 303.181Z" fill="#2F3D6C"/>
<path d="M68.624 300.871L68.6111 297.159L53.8472 301.266L54.454 298.654L42.4558 303.213C41.4696 303.588 40.832 304.441 40.8352 305.383C40.8393 306.686 42.0474 307.739 43.5332 307.734L53.7503 307.708L64.1941 304.827L64.2014 306.996C64.203 307.375 64.5541 307.681 64.9867 307.68C65.3192 307.679 65.6153 307.494 65.7243 307.219L67.1027 303.731C68.0494 303.037 68.6272 301.999 68.624 300.871Z" fill="#2F3D6C"/>
<path d="M57.2061 168.078L51.7553 188.313C50.1816 194.156 49.561 200.166 49.9137 206.162L54.9721 292.256H68.98L74.9609 202.906L104.762 292.256H118.77L94.1063 168.077H57.2061V168.078Z" fill="#6277D7"/>
<path d="M75.7404 125.34C78.2277 125.34 80.2171 123.241 81.5584 121.114H67.3739C69.5376 123.235 72.5002 125.34 75.7404 125.34Z" fill="white"/>
<path d="M100.187 127.035C98.4272 123.951 95.5049 121.495 91.9152 120.083L83.4978 116.773C83.4978 117.12 82.8102 119.129 81.5577 121.115C80.2164 123.242 78.227 125.342 75.7397 125.342C72.4995 125.342 69.5369 123.236 67.3732 121.115C65.178 118.963 63.8068 116.795 63.8068 116.795L54.0409 120.762C50.0436 122.386 47.1003 125.51 46.0375 129.258L40.3293 149.381C39.3988 152.662 40.4705 156.131 43.1628 158.552C47.6572 157.17 56.0956 154.291 56.0956 154.291L57.2044 168.079H94.1039L103.271 132.444L100.187 127.035Z" fill="#FF9078"/>
<path d="M76.1053 128.367C74.0538 128.367 71.9668 127.82 69.9008 126.741C68.2609 125.884 66.6306 124.692 65.0553 123.196C62.3816 120.658 60.753 118.068 60.7369 118.043L61.2848 117.82C61.301 117.845 62.8796 120.356 65.5065 122.846C67.0415 124.302 68.6257 125.46 70.2148 126.289C72.1839 127.317 74.166 127.838 76.1053 127.838C77.9357 127.838 79.5845 127.302 81.0057 126.247C82.1557 125.392 83.1645 124.196 84.003 122.691C85.4444 120.105 85.8382 117.72 85.8423 117.694L86.4095 117.917C86.3918 118.026 86.0303 120.251 84.5502 122.912C83.6753 124.485 82.6157 125.741 81.4011 126.645C79.8661 127.788 78.085 128.367 76.1053 128.367Z" fill="white"/>
<path d="M98.0931 236.783C101.796 236.783 104.798 234.152 104.798 230.905C104.798 227.659 101.796 225.027 98.0931 225.027C94.39 225.027 91.3882 227.659 91.3882 230.905C91.3882 234.152 94.39 236.783 98.0931 236.783Z" fill="#4A5EA3"/>
<path d="M62.9651 236.783C66.6681 236.783 69.6699 234.152 69.6699 230.905C69.6699 227.659 66.6681 225.027 62.9651 225.027C59.2621 225.027 56.2602 227.659 56.2602 230.905C56.2602 234.152 59.2621 236.783 62.9651 236.783Z" fill="#4A5EA3"/>
<path d="M54.0997 123.375C54.0997 125.448 52.183 127.13 49.8168 127.13C48.8669 127.13 47.9896 126.859 47.2794 126.4C48.6143 124.174 50.6803 122.327 53.2378 121.116C53.7794 121.744 54.0997 122.527 54.0997 123.375Z" fill="#FF78BA"/>
<path d="M79.1582 172.736L107.553 171.795C109.045 171.746 110.336 170.871 110.764 169.617L123.179 133.337C123.443 132.567 122.763 131.798 121.847 131.828L93.1314 132.778C91.8313 132.822 90.707 133.584 90.3326 134.677L77.8258 171.226C77.5619 171.997 78.2406 172.766 79.1582 172.736Z" fill="#4A5EA3"/>
<path d="M109.759 153.68L114.727 158.037L115.574 155.561L109.759 153.68Z" fill="#2F3D6C"/>
<path d="M116.657 146.934L109.498 147.349C108.969 147.379 108.56 147.767 108.565 148.231L107.853 148.27C107.391 148.295 107.015 148.606 106.961 149.01L106.873 149.663H106.87C106.34 149.668 105.916 150.05 105.923 150.514C105.928 150.855 106.167 151.159 106.528 151.285L108.13 151.843C108.127 152.559 108.601 153.211 109.342 153.511L114.323 155.53C115.047 155.824 115.851 155.931 116.641 155.841C118.418 155.639 119.856 154.477 120.231 152.941L120.541 151.67C120.874 150.301 120.391 148.877 119.257 147.893C118.564 147.29 117.631 146.947 116.657 146.934Z" fill="#FCBEB7"/>
<path d="M81.075 122.73L85.96 133.198C86.2361 133.789 86.6387 134.324 87.135 134.757L88.0042 135.516C88.206 135.693 88.4877 135.591 88.4909 135.342L88.5038 134.266C88.5111 133.651 88.3707 133.023 88.0955 132.432L83.2104 121.964C82.9134 121.327 82.1943 120.982 81.6044 121.193C81.0144 121.405 80.7772 122.093 81.075 122.73Z" fill="#6277D7"/>
<path d="M87.4974 128.966L84.8156 125.727C84.4702 125.31 83.9351 125.044 83.3492 124.997L78.8516 124.64C78.2391 124.591 77.6306 124.764 77.1666 125.118L74.8237 126.903C74.4855 127.16 74.1983 127.465 73.9731 127.805L71.0984 131.803L43.8439 151.107C41.1548 153.012 40.9176 156.531 43.3306 158.7C45.7308 160.858 49.7223 160.753 51.9707 158.473L74.9867 135.136L79.8274 132.527L83.4002 132.634C84.2306 132.659 84.9617 132.16 85.1385 131.448L85.3346 131.245C85.6728 130.893 85.8099 130.425 85.7058 129.975L85.5016 129.091L86.6565 129.745C86.8252 129.84 87.0358 129.859 87.2223 129.794C87.6008 129.664 87.7371 129.255 87.4974 128.966Z" fill="#FCBEB7"/>
<path d="M56.0972 154.29L66.1819 144.064L56.4805 159.057L56.0972 154.29Z" fill="#FF78BA"/>
<path d="M79.1583 172.736L95.8294 176.76L94.9263 172.214L79.1583 172.736Z" fill="#2F3D6C"/>
<path d="M98.6975 124.895C98.1705 125.088 97.5918 125.194 96.9849 125.194C94.5251 125.194 92.5309 123.446 92.5309 121.289C92.5309 120.98 92.5721 120.68 92.6496 120.391C95.0505 121.458 97.1206 123.004 98.6975 124.895Z" fill="#FF78BA"/>
<path d="M47.6587 159.467C49.9466 159.467 51.8013 157.841 51.8013 155.836C51.8013 153.83 49.9466 152.204 47.6587 152.204C45.3709 152.204 43.5162 153.83 43.5162 155.836C43.5162 157.841 45.3709 159.467 47.6587 159.467Z" fill="#F9AFAB"/>
</svg>
